<?xml version="1.0" encoding="utf-8"?>
<!-- Calendar icon by Arthur Shlain from Usefulicons.com -->
<svg xmlns="http://www.w3.org/2000/svg" xmlns:xlink="http://www.w3.org/1999/xlink" xml:space="preserve" version="1.1" x="0px" y="0px" viewBox="0 0 100 100" width="400px" height="400px"><path d="M25,40L35,40L35,50L25,50L25,40Z" stroke="none"></path><path d="M45,40L55,40L55,50L45,50L45,40Z" stroke="none"></path><path d="M65,40L75,40L75,50L65,50L65,40Z" stroke="none"></path><path d="M45,60L55,60L55,70L45,70L45,60Z" stroke="none"></path><path d="M25,60L35,60L35,70L25,70L25,60Z" stroke="none"></path><path d="M85,20L80,20L80,17.5C80,16.119,78.881,15,77.5,15S75,16.119,75,17.5L75,20L70,20L70,17.5C70,16.119,68.881,15,67.5,15S65,16.119,65,17.5L65,20L60,20L60,17.5C60,16.119,58.881,15,57.5,15S55,16.119,55,17.5L55,20L45,20L45,17.5C45,16.119,43.881,15,42.5,15S40,16.119,40,17.5L40,20L35,20L35,17.5C35,16.119,33.881,15,32.5,15S30,16.119,30,17.5L30,20L25,20L25,17.5C25,16.119,23.881,15,22.5,15S20,16.119,20,17.5L20,20L15,20C12.239,20,10,22.239,10,25L10,80C10,82.761,12.239,85,15,85L85,85C87.761,85,90,82.761,90,80L90,25C90,22.239,87.761,20,85,20ZM75,70L75,75C75,77.761,72.761,80,70,80L15,80L15,25L20,25L20,27.357C20,28.665,20.941,29.856,22.242,29.987C23.739,30.137,25,28.966,25,27.5L25,25L30,25L30,27.357C30,28.665,30.941,29.856,32.242,29.987C33.739,30.137,35,28.966,35,27.5L35,25L40,25L40,27.357C40,28.665,40.941,29.856,42.242,29.987C43.739,30.137,45,28.966,45,27.5L45,25L55,25L55,27.357C55,28.665,55.941,29.856,57.242,29.987C58.739,30.137,60,28.966,60,27.5L60,25L65,25L65,27.357C65,28.665,65.941,29.856,67.242,29.987C68.739,30.137,70,28.966,70,27.5L70,25L75,25L75,27.357C75,28.665,75.941,29.856,77.242,29.987C78.739,30.137,80,28.966,80,27.5L80,25L85,25L85,65C85,67.761,82.761,70,80,70L75,70Z" stroke="none"></path></svg>